<?xml version="1.0" encoding="UTF-8" standalone="no"?>
<!-- Created with Inkscape (http://www.inkscape.org/) -->

<svg
   width="210mm"
   height="297mm"
   viewBox="0 0 210 297"
   version="1.1"
   id="svg5"
   inkscape:version="1.1.2 (0a00cf5339, 2022-02-04)"
   sodipodi:docname="LogoMM-V00.svg"
   inkscape:export-filename="/home/MPierrot-Deseilligny/micmac/MMVII/Doc/Communication/LogoMM-V00.png"
   inkscape:export-xdpi="96"
   inkscape:export-ydpi="96"
   xmlns:inkscape="http://www.inkscape.org/namespaces/inkscape"
   xmlns:sodipodi="http://sodipodi.sourceforge.net/DTD/sodipodi-0.dtd"
   xmlns="http://www.w3.org/2000/svg"
   xmlns:svg="http://www.w3.org/2000/svg">
  <sodipodi:namedview
     id="namedview7"
     pagecolor="#ffffff"
     bordercolor="#666666"
     borderopacity="1.0"
     inkscape:pageshadow="2"
     inkscape:pageopacity="0.0"
     inkscape:pagecheckerboard="0"
     inkscape:document-units="mm"
     showgrid="false"
     showguides="false"
     inkscape:zoom="0.90583672"
     inkscape:cx="289.78733"
     inkscape:cy="140.75384"
     inkscape:window-width="1610"
     inkscape:window-height="986"
     inkscape:window-x="70"
     inkscape:window-y="27"
     inkscape:window-maximized="1"
     inkscape:current-layer="layer1">
    <inkscape:grid
       type="xygrid"
       id="grid15642" />
  </sodipodi:namedview>
  <defs
     id="defs2">
    <linearGradient
       id="linearGradient3173"
       inkscape:swatch="solid">
      <stop
         style="stop-color:#e6e6e6;stop-opacity:1;"
         offset="0"
         id="stop3171" />
    </linearGradient>
    <rect
       x="134.4416"
       y="149.99676"
       width="234.13664"
       height="169.46584"
       id="rect3004" />
  </defs>
  <g
     inkscape:label="Calque 1"
     inkscape:groupmode="layer"
     id="layer1">
    <rect
       style="opacity:0.422804;fill:#cccccc;fill-opacity:1;stroke:#000000;stroke-width:0"
       id="rect877"
       width="91.743347"
       height="79.873924"
       x="10.905754"
       y="29.652987"
       inkscape:export-filename="/home/MPierrot-Deseilligny/micmac/MMVII/Doc/Communication/mm.png"
       inkscape:export-xdpi="300"
       inkscape:export-ydpi="300" />
    <path
       style="fill:none;stroke:none;stroke-width:0.264583px;stroke-linecap:butt;stroke-linejoin:miter;stroke-opacity:1"
       d="m 18.520833,37.041667 18.520834,0 15.875,21.166667 L 71.4375,37.041667 h 15.875 V 100.54167 H 71.4375 V 55.5625 L 52.916667,76.729167 34.395834,58.208334 v 42.333336 h -15.875 z"
       id="path15677"
       sodipodi:nodetypes="ccccccccccccc"
       inkscape:export-filename="/home/MPierrot-Deseilligny/micmac/MMVII/Doc/Communication/mm.png"
       inkscape:export-xdpi="300"
       inkscape:export-ydpi="300" />
    <path
       style="fill:none;stroke:none;stroke-width:0.264583px;stroke-linecap:butt;stroke-linejoin:miter;stroke-opacity:1"
       d="m 23.812509,37.041636 h 18.520835 l 15.875,21.166631 18.520833,-21.166631 h 15.875 v 63.499734 h -15.875 V 55.562452 L 58.208344,76.729002 39.687511,58.208267 V 100.54137 H 23.81251 Z"
       id="path15677-9"
       sodipodi:nodetypes="ccccccccccccc"
       inkscape:export-filename="/home/MPierrot-Deseilligny/micmac/MMVII/Doc/Communication/mm.png"
       inkscape:export-xdpi="300"
       inkscape:export-ydpi="300" />
    <path
       style="fill:#43002b;stroke:#7a007a;stroke-width:0.551976;stroke-opacity:1;fill-opacity:1"
       d="M 90.52404,260.25093 V 141.01847 l 24.65112,0.14367 24.65112,0.14368 29.8565,39.83479 c 16.42107,21.90913 30.01303,39.85524 30.20435,39.88025 0.19132,0.025 2.63122,-2.56262 5.42201,-5.75028 2.79079,-3.18766 5.24234,-5.78518 5.44789,-5.77228 0.20555,0.0129 2.3152,2.63776 4.68809,5.83301 3.10707,4.18384 4.49722,5.6574 4.96779,5.26587 0.35938,-0.29901 16.17774,-18.31372 35.15191,-40.03268 l 34.49849,-39.48903 19.45715,-0.0228 19.45715,-0.0228 V 260.25662 379.4834 h -19.04317 -19.04316 v -85.55626 c 0,-47.05594 -0.1863,-85.53605 -0.41399,-85.51136 -0.22769,0.0247 -4.63659,4.9222 -9.79757,10.88336 l -9.38359,10.83846 -0.1498,-10.92542 c -0.0824,-6.00898 -0.35884,-10.84439 -0.61432,-10.74536 -0.25549,0.099 -13.81282,15.45599 -30.12739,34.12657 -16.31458,18.67058 -30.01403,34.31424 -30.44323,34.76367 -0.68119,0.71332 -4.60208,-3.00408 -30.85413,-29.25282 l -30.07378,-30.06998 v 9.92792 9.92791 l -9.93556,-9.92406 -9.93557,-9.92406 v 80.72071 80.72072 H 109.8432 90.52404 Z"
       id="path19388"
       transform="scale(0.26458333)"
       inkscape:export-filename="/home/MPierrot-Deseilligny/micmac/MMVII/Doc/Communication/mm.png"
       inkscape:export-xdpi="300"
       inkscape:export-ydpi="300" />
    <path
       style="fill:#00ffff;stroke:none;stroke-width:0.146044"
       d="m 38.758957,165.95104 v -31.54692 l 6.522276,0.038 6.522275,0.038 7.899532,10.53962 c 4.344741,5.79679 7.940947,10.54503 7.991567,10.55165 0.05062,0.007 0.696177,-0.67803 1.434574,-1.52143 0.738396,-0.8434 1.387036,-1.53066 1.441421,-1.52725 0.05438,0.003 0.612563,0.69791 1.24039,1.54332 0.822079,1.10697 1.18989,1.49685 1.314395,1.39326 0.09509,-0.0791 4.28036,-4.8455 9.300609,-10.59198 l 9.127725,-10.44814 5.148034,-0.006 5.148045,-0.006 v 31.54541 31.54543 h -5.038505 -5.038506 v -22.63676 c 0,-12.45023 -0.04929,-22.63142 -0.109535,-22.62489 -0.06024,0.007 -1.226765,1.30233 -2.592274,2.87956 l -2.482742,2.86767 -0.03963,-2.89068 c -0.0218,-1.58988 -0.09494,-2.86925 -0.162539,-2.84304 -0.0676,0.0262 -3.654642,4.08939 -7.971205,9.02932 -4.316566,4.93992 -7.941212,9.07897 -8.054771,9.19789 -0.180232,0.18873 -1.217634,-0.79483 -8.163489,-7.73981 l -7.957021,-7.95602 v 2.62676 2.62676 l -2.628787,-2.62581 -2.628786,-2.62574 v 21.35736 21.35736 h -5.111525 -5.111528 z"
       id="path19388-86" />
    <path
       style="opacity:0.422804;fill:#ff0000;stroke:none;stroke-width:0.146044"
       d="m 32.868636,165.3946 v -31.54693 l 6.522275,0.038 6.522276,0.038 7.899532,10.53963 c 4.344741,5.79679 7.940947,10.54503 7.991567,10.55165 0.05062,0.007 0.696177,-0.67803 1.434574,-1.52143 0.738396,-0.8434 1.387036,-1.53066 1.441421,-1.52725 0.05438,0.003 0.612563,0.69791 1.24039,1.54332 0.822079,1.10697 1.18989,1.49685 1.314395,1.39326 0.09509,-0.0791 4.28036,-4.84551 9.300609,-10.59198 l 9.127725,-10.44814 5.148038,-0.006 5.148038,-0.006 v 31.54534 31.54542 H 90.92097 85.882468 v -22.63676 c 0,-12.45022 -0.04929,-22.63141 -0.109535,-22.62488 -0.06024,0.006 -1.226765,1.30233 -2.592274,2.87956 l -2.482742,2.86767 -0.03963,-2.89068 c -0.0218,-1.58988 -0.09494,-2.86925 -0.162539,-2.84305 -0.0676,0.0262 -3.654642,4.0894 -7.971205,9.02933 -4.316566,4.93992 -7.941212,9.07897 -8.054771,9.19788 -0.180232,0.18874 -1.217634,-0.79483 -8.163489,-7.73981 l -7.957021,-7.95601 v 2.62676 2.62676 l -2.628783,-2.62574 -2.628787,-2.62574 v 21.35735 21.35736 H 37.980167 32.86864 Z"
       id="path19388-8" />
    <path
       style="fill:#00ffff;stroke:#00ffff;stroke-width:0.551976;stroke-opacity:1"
       d="M 70.65291,260.25662 V 141.02983 h 9.383589 9.38359 V 260.25662 379.4834 h -9.38359 -9.383589 z"
       id="path19691"
       transform="scale(0.26458333)"
       inkscape:export-filename="/home/MPierrot-Deseilligny/micmac/MMVII/Doc/Communication/mm.png"
       inkscape:export-xdpi="300"
       inkscape:export-ydpi="300" />
    <path
       style="fill:#00ffff;stroke:#00ffff;stroke-width:0.551976"
       d="m 271.02739,306.20861 0.007,-73.2748 9.10036,-10.38549 9.10036,-10.38549 v 83.66028 83.66029 h -9.1076 -9.1076 z"
       id="path19767"
       transform="scale(0.26458333)"
       inkscape:export-filename="/home/MPierrot-Deseilligny/micmac/MMVII/Doc/Communication/mm.png"
       inkscape:export-xdpi="300"
       inkscape:export-ydpi="300" />
    <path
       style="fill:#00ffff;stroke:#00ffff;stroke-width:0.551976"
       d="m 175.09738,263.96552 -24.43723,-24.44187 0.15262,-8.67977 0.15263,-8.67978 28.61965,28.62473 28.61966,28.62473 -3.9691,4.49691 c -2.183,2.47331 -4.13377,4.49692 -4.33504,4.49692 -0.20127,0 -11.36271,-10.99885 -24.80319,-24.44187 z"
       id="path19843"
       transform="scale(0.26458333)"
       inkscape:export-filename="/home/MPierrot-Deseilligny/micmac/MMVII/Doc/Communication/mm.png"
       inkscape:export-xdpi="300"
       inkscape:export-ydpi="300" />
    <path
       style="fill:#00ffff;stroke:#00ffff;stroke-width:0.551976"
       d="m 215.87288,213.05395 -3.97637,-5.2902 3.75694,-4.31203 c 2.06633,-2.37163 15.18285,-17.38218 29.14784,-33.35679 l 25.39089,-29.04474 8.69362,-0.0102 c 4.78149,-0.006 8.69362,0.0975 8.69362,0.22916 0,0.34904 -66.86676,76.73229 -67.33501,76.91814 -0.21734,0.0863 -2.18453,-2.22374 -4.37153,-5.13336 z"
       id="path19919"
       transform="scale(0.26458333)"
       inkscape:export-filename="/home/MPierrot-Deseilligny/micmac/MMVII/Doc/Communication/mm.png"
       inkscape:export-xdpi="300"
       inkscape:export-ydpi="300" />
    <path
       style="fill:#ff0000;stroke:#ff0000;stroke-width:0.551976"
       d="m 130.81828,300.69512 v -78.78828 l 9.1076,9.09506 9.1076,9.09505 v 69.69322 69.69323 h -9.1076 -9.1076 z"
       id="path20069"
       transform="scale(0.26458333)"
       inkscape:export-filename="/home/MPierrot-Deseilligny/micmac/MMVII/Doc/Communication/mm.png"
       inkscape:export-xdpi="300"
       inkscape:export-ydpi="300" />
    <path
       style="fill:#ff0000;stroke:#ff0000;stroke-width:0.551976"
       d="M 330.63354,260.25662 V 141.02983 h 9.38359 9.38359 V 260.25662 379.4834 h -9.38359 -9.38359 z"
       id="path20145"
       transform="scale(0.26458333)"
       inkscape:export-filename="/home/MPierrot-Deseilligny/micmac/MMVII/Doc/Communication/mm.png"
       inkscape:export-xdpi="300"
       inkscape:export-ydpi="300" />
    <path
       style="fill:#ff0000;stroke:#ff0000;stroke-width:0.551976"
       d="m 215.11519,284.07322 -4.71199,-4.77344 27.59183,-31.46262 c 15.17551,-17.30444 28.43688,-32.45618 29.46971,-33.67053 l 1.87787,-2.2079 0.007,10.21155 0.007,10.21156 -4.8464,5.51975 c -2.66554,3.03587 -13.80959,15.74046 -24.76457,28.23242 l -19.91815,22.71265 z"
       id="path20221"
       transform="scale(0.26458333)"
       inkscape:export-filename="/home/MPierrot-Deseilligny/micmac/MMVII/Doc/Communication/mm.png"
       inkscape:export-xdpi="300"
       inkscape:export-ydpi="300" />
    <path
       style="fill:#ff0000;stroke:#ff0000;stroke-width:0.551976"
       d="m 170.96059,179.83579 -29.10557,-38.80596 8.97099,0.0242 8.971,0.0242 24.92685,33.30141 24.92685,33.30142 -4.79227,5.48031 -4.79228,5.48031 z"
       id="path20297"
       transform="scale(0.26458333)"
       inkscape:export-filename="/home/MPierrot-Deseilligny/micmac/MMVII/Doc/Communication/mm.png"
       inkscape:export-xdpi="300"
       inkscape:export-ydpi="300" />
    <path
       style="fill:none;stroke:none;stroke-width:0.264583px;stroke-linecap:butt;stroke-linejoin:miter;stroke-opacity:1"
       d="m 27.78125,334.69792 h 18.520834 l 15.875,21.16666 18.520833,-21.16666 h 15.875 v 63.5 h -15.875 V 353.21875 L 62.177084,374.38542 43.656251,355.86458 v 42.33334 h -15.875 z"
       id="path15677-8"
       sodipodi:nodetypes="ccccccccccccc" />
    <path
       style="fill:none;stroke:none;stroke-width:0.264583px;stroke-linecap:butt;stroke-linejoin:miter;stroke-opacity:1"
       d="m 33.072926,334.69789 h 18.520835 l 15.875,21.16663 18.520833,-21.16663 h 15.874996 v 63.49973 H 85.989594 V 353.2187 L 67.468761,374.38525 48.947928,355.86452 v 42.3331 H 33.072927 Z"
       id="path15677-9-5"
       sodipodi:nodetypes="ccccccccccccc" />
    <path
       style="fill:#43002b;fill-opacity:1;stroke:#7a007a;stroke-width:0.146044;stroke-opacity:1"
       d="m 33.211569,366.51431 v -31.54692 l 6.522275,0.038 6.522275,0.038 7.899533,10.53963 c 4.344741,5.79679 7.940947,10.54503 7.991567,10.55165 0.05062,0.007 0.696177,-0.67803 1.434574,-1.52143 0.738396,-0.8434 1.387035,-1.53067 1.441421,-1.52725 0.05439,0.003 0.612563,0.69791 1.24039,1.54332 0.822079,1.10697 1.189889,1.49685 1.314394,1.39326 0.09509,-0.0791 4.280361,-4.84551 9.30061,-10.59198 l 9.127725,-10.44814 5.148038,-0.006 5.148037,-0.006 v 31.54541 31.54542 H 91.263903 86.2254 v -22.63676 c 0,-12.45022 -0.04929,-22.63141 -0.109535,-22.62488 -0.06024,0.007 -1.226764,1.30233 -2.592273,2.87956 l -2.482742,2.86767 -0.03963,-2.89068 c -0.0218,-1.58988 -0.09494,-2.86925 -0.162539,-2.84304 -0.0676,0.0262 -3.654642,4.08939 -7.971205,9.02932 -4.316566,4.93992 -7.941212,9.07897 -8.054772,9.19788 -0.180231,0.18874 -1.217633,-0.79482 -8.163488,-7.7398 l -7.957021,-7.95602 v 2.62676 2.62676 l -2.628783,-2.62574 -2.628787,-2.62574 v 21.35735 21.35736 H 38.3231 33.211573 Z"
       id="path19388-0" />
    <path
       style="fill:#00ffff;stroke:#00ffff;stroke-width:0.146044;stroke-opacity:1"
       d="m 27.953999,366.51581 v -31.54542 h 2.482741 2.482742 v 31.54542 31.54542 H 30.43674 27.953999 Z"
       id="path19691-0" />
    <path
       style="fill:#00ffff;stroke:#00ffff;stroke-width:0.146044"
       d="m 80.969746,378.67394 0.0019,-19.38729 2.407804,-2.74782 2.407803,-2.74783 v 22.13511 22.13512 h -2.409719 -2.409719 z"
       id="path19767-5" />
    <path
       style="fill:#00ffff;stroke:#00ffff;stroke-width:0.146044"
       d="m 55.588265,367.49713 -6.465684,-6.46692 0.04038,-2.29652 0.04038,-2.29652 7.572282,7.57362 7.572285,7.57363 -1.050158,1.18981 c -0.577585,0.65439 -1.093726,1.18981 -1.146979,1.18981 -0.05325,0 -3.006383,-2.91011 -6.56251,-6.46691 z"
       id="path19843-3" />
    <path
       style="fill:#00ffff;stroke:#00ffff;stroke-width:0.146044"
       d="m 66.376782,354.02677 -1.052081,-1.3997 0.994024,-1.14089 c 0.546716,-0.62749 4.017129,-4.59903 7.712032,-8.82565 l 6.718006,-7.68475 2.300187,-0.003 c 1.265103,-0.002 2.300187,0.0258 2.300187,0.0606 0,0.0924 -17.69183,20.30209 -17.815721,20.35126 -0.0575,0.0228 -0.57799,-0.58836 -1.156634,-1.3582 z"
       id="path19919-2" />
    <path
       style="fill:#ff0000;stroke:#ff0000;stroke-width:0.146044"
       d="M 43.872753,377.21517 V 356.3691 l 2.409719,2.4064 2.409719,2.4064 v 18.43966 18.43967 h -2.409719 -2.409719 z"
       id="path20069-2" />
    <path
       style="fill:#ff0000;stroke:#ff0000;stroke-width:0.146044"
       d="m 96.74054,366.51581 v -31.54542 h 2.482741 2.482739 v 31.54542 31.54542 H 99.223281 96.74054 Z"
       id="path20145-3" />
    <path
       style="fill:#ff0000;stroke:#ff0000;stroke-width:0.146044"
       d="m 66.17631,372.81729 -1.246714,-1.26297 7.300338,-8.32449 c 4.015187,-4.57847 7.523925,-8.58736 7.797194,-8.90866 l 0.496853,-0.58417 0.0019,2.7018 0.0019,2.70181 -1.282277,1.46043 c -0.705258,0.80325 -3.653787,4.16467 -6.552293,7.46983 l -5.27001,6.00939 z"
       id="path20221-8" />
    <path
       style="fill:#ff0000;stroke:#ff0000;stroke-width:0.146044"
       d="m 54.493739,345.2378 -7.700849,-10.26741 2.373575,0.006 2.373577,0.006 6.595229,8.811 6.595229,8.811 -1.267955,1.45 -1.267957,1.44999 z"
       id="path20297-4" />
    <path
       style="fill:none;stroke:#000000;stroke-width:0.264583px;stroke-linecap:butt;stroke-linejoin:miter;stroke-opacity:1"
       d="m 43.656249,88.106247 v 1.322917 l 5.291667,5.291666 1.322917,-1.322917 -6.614584,-6.614583 z"
       id="path25738"
       inkscape:export-filename="/home/MPierrot-Deseilligny/micmac/MMVII/Doc/Communication/mm.png"
       inkscape:export-xdpi="300"
       inkscape:export-ydpi="300" />
    <path
       style="fill:#ff0000;stroke:#000000;stroke-width:0.264583px;stroke-linecap:butt;stroke-linejoin:miter;stroke-opacity:1"
       d="m 50.270833,93.397913 1.322916,1.322917 5.291667,-5.291666 V 86.78333 Z"
       id="path25740"
       inkscape:export-filename="/home/MPierrot-Deseilligny/micmac/MMVII/Doc/Communication/mm.png"
       inkscape:export-xdpi="300"
       inkscape:export-ydpi="300" />
    <path
       style="fill:#00ffff;stroke:none;stroke-width:0.0365109"
       d="m 46.377164,91.944216 -2.565178,-2.565368 0.0097,-1.103916 0.0097,-1.103913 3.112736,3.112918 3.112738,3.112921 -0.557236,0.556363 -0.557236,0.556366 z"
       id="path25927"
       inkscape:export-filename="/home/MPierrot-Deseilligny/micmac/MMVII/Doc/Communication/mm.png"
       inkscape:export-xdpi="300"
       inkscape:export-ydpi="300" />
    <path
       style="fill:none;stroke:#000000;stroke-width:0.264583px;stroke-linecap:butt;stroke-linejoin:miter;stroke-opacity:1"
       d="m 59.531249,86.78333 h 2.645834 v 7.9375 h -2.645834 z"
       id="path26036"
       inkscape:export-filename="/home/MPierrot-Deseilligny/micmac/MMVII/Doc/Communication/mm.png"
       inkscape:export-xdpi="300"
       inkscape:export-ydpi="300" />
    <path
       style="fill:#00ffff;stroke:none;stroke-width:0.0365109"
       d="m 59.695325,90.749294 v -3.833643 h 1.16835 1.16835 v 3.833643 3.833646 h -1.16835 -1.16835 z"
       id="path26075"
       inkscape:export-filename="/home/MPierrot-Deseilligny/micmac/MMVII/Doc/Communication/mm.png"
       inkscape:export-xdpi="300"
       inkscape:export-ydpi="300" />
    <path
       style="fill:#ff0000;stroke:#000000;stroke-width:0.264583px;stroke-linecap:butt;stroke-linejoin:miter;stroke-opacity:1"
       d="m 64.822918,86.783325 h 2.645834 v 7.937485 h -2.645834 z"
       id="path26036-7"
       inkscape:export-filename="/home/MPierrot-Deseilligny/micmac/MMVII/Doc/Communication/mm.png"
       inkscape:export-xdpi="300"
       inkscape:export-ydpi="300" />
    <path
       style="fill:#ff0000;stroke:none;stroke-width:0.0365109"
       d="m 64.986995,90.74929 v -3.833644 h 1.168349 1.16835 v 3.833644 3.833633 h -1.16835 -1.168349 z"
       id="path26075-0"
       inkscape:export-filename="/home/MPierrot-Deseilligny/micmac/MMVII/Doc/Communication/mm.png"
       inkscape:export-xdpi="300"
       inkscape:export-ydpi="300" />
  </g>
  <g
     inkscape:groupmode="layer"
     id="layer2"
     inkscape:label="Calque 2" />
</svg>
